<svg width="997" height="193" viewBox="0 0 997 193" fill="none" xmlns="http://www.w3.org/2000/svg">
<path d="M53.125 181.5H78L78.125 9.625H54.875C41.125 10.5417 31.5417 15.625 26.125 24.875C21.9583 31.9583 19.5 43.7083 18.75 60.125H9V0H180.75V60.125H171C170.25 43.875 167.75 32.125 163.5 24.875C158.083 15.625 148.542 10.5417 134.875 9.625H111.75V181.5H136.75V191.25H53.125V181.5Z" fill="#DDDDDD" fill-opacity="0.5"/>
<path d="M44.125 181.5H69L69.125 9.625H45.875C32.125 10.5417 22.5417 15.625 17.125 24.875C12.9583 31.9583 10.5 43.7083 9.75 60.125H0V0H171.75V60.125H162C161.25 43.875 158.75 32.125 154.5 24.875C149.083 15.625 139.542 10.5417 125.875 9.625H102.75V181.5H127.75V191.25H44.125V181.5Z" fill="url(#paint0_radial_18_1165)"/>
<path d="M182.846 184.145H192.338L241.908 56.5273H252.104L305.102 184.145H314.066V191H266.166V184.145H279.35L266.693 153.471H213.344L201.742 184.145H217.562V191H182.846V184.145ZM263.881 146.615L238.92 85.8828L215.98 146.615H263.881Z" fill="#DDDDDD" fill-opacity="0.5"/>
<path d="M324.959 63.3828H313.182V56.5273H369.432V63.3828H352.469L391.404 163.139L427.967 63.3828H411.443V56.5273H450.994V63.3828H437.459L388.68 192.758H381.209L324.959 63.3828Z" fill="#DDDDDD" fill-opacity="0.5"/>
<path d="M454.416 184.057H471.994L472.082 63.3828H454.416V56.5273H568.059V94.8477H561.203C560.91 89.9844 560.5 85.6777 559.973 81.9277C559.445 78.1191 558.332 74.8965 556.633 72.2598C553.234 66.8691 546.32 63.9102 535.891 63.3828H495.725V118.578H517.697C522.678 118.578 526.486 117.787 529.123 116.205C531.818 114.564 533.459 111.723 534.045 107.68C534.162 106.508 534.25 105.277 534.309 103.988C534.426 102.641 534.543 101.322 534.66 100.033H542.043V145.385H534.66C534.543 144.037 534.426 142.484 534.309 140.727C534.25 138.969 534.162 137.504 534.045 136.332C533.459 132.289 531.789 129.477 529.035 127.895C526.34 126.254 522.561 125.434 517.697 125.434H495.725V184.145H533.342C548.752 184.145 558.098 177.025 561.379 162.787C562.316 158.686 562.932 154.467 563.225 150.131H570.08V191H454.416V184.057Z" fill="#DDDDDD" fill-opacity="0.5"/>
<path d="M648.033 56.5273C681.725 56.5273 698.57 67.8359 698.57 90.4531C698.57 100.707 695.465 108.881 689.254 114.975C683.043 121.068 674.723 124.965 664.293 126.664C678.062 128.949 687.496 136.039 692.594 147.934C694.645 152.738 696.432 158.041 697.955 163.842C699.537 169.584 700.943 173.656 702.174 176.059C704.869 181.449 708.854 184.145 714.127 184.145H717.643L717.818 191.439H705.426C693.941 191.439 686.207 189.887 682.223 186.781C678.18 183.617 675.104 177.377 672.994 168.061C671.061 159.564 669.479 153.764 668.248 150.658C665.67 143.979 662.33 138.734 658.229 134.926C654.127 131.117 648.824 129.213 642.32 129.213H626.236V184.145H646.803V191H588.355V184.145H602.506L602.594 63.3828H588.355V56.5273H648.033ZM646.451 123.148C657.115 123.148 664.615 119.721 668.951 112.865C672.115 107.885 673.697 100.824 673.697 91.6836C673.697 82.543 671.852 75.8047 668.16 71.4688C663.59 66.0781 655.826 63.3828 644.869 63.3828H626.236V123.148H646.451Z" fill="#DDDDDD" fill-opacity="0.5"/>
<path d="M723.174 184.145H738.467V63.3828H723.174V56.5273H762.988L834.18 162.436V63.3828H817.129V56.5273H858.877V63.3828H842.793V191H826.445L747.08 74.3691V184.145H764.922V191H723.174V184.145Z" fill="#DDDDDD" fill-opacity="0.5"/>
<path d="M865.463 184.145H874.955L924.525 56.5273H934.721L987.719 184.145H996.684V191H948.783V184.145H961.967L949.311 153.471H895.961L884.359 184.145H900.18V191H865.463V184.145ZM946.498 146.615L921.537 85.8828L898.598 146.615H946.498Z" fill="#DDDDDD" fill-opacity="0.5"/>
<path d="M173.846 184.145H183.338L232.908 56.5273H243.104L296.102 184.145H305.066V191H257.166V184.145H270.35L257.693 153.471H204.344L192.742 184.145H208.562V191H173.846V184.145ZM254.881 146.615L229.92 85.8828L206.98 146.615H254.881Z" fill="#FCF5F5"/>
<path d="M315.959 63.3828H304.182V56.5273H360.432V63.3828H343.469L382.404 163.139L418.967 63.3828H402.443V56.5273H441.994V63.3828H428.459L379.68 192.758H372.209L315.959 63.3828Z" fill="#FCF5F5"/>
<path d="M445.416 184.057H462.994L463.082 63.3828H445.416V56.5273H559.059V94.8477H552.203C551.91 89.9844 551.5 85.6777 550.973 81.9277C550.445 78.1191 549.332 74.8965 547.633 72.2598C544.234 66.8691 537.32 63.9102 526.891 63.3828H486.725V118.578H508.697C513.678 118.578 517.486 117.787 520.123 116.205C522.818 114.564 524.459 111.723 525.045 107.68C525.162 106.508 525.25 105.277 525.309 103.988C525.426 102.641 525.543 101.322 525.66 100.033H533.043V145.385H525.66C525.543 144.037 525.426 142.484 525.309 140.727C525.25 138.969 525.162 137.504 525.045 136.332C524.459 132.289 522.789 129.477 520.035 127.895C517.34 126.254 513.561 125.434 508.697 125.434H486.725V184.145H524.342C539.752 184.145 549.098 177.025 552.379 162.787C553.316 158.686 553.932 154.467 554.225 150.131H561.08V191H445.416V184.057Z" fill="#FCF5F5"/>
<path d="M639.033 56.5273C672.725 56.5273 689.57 67.8359 689.57 90.4531C689.57 100.707 686.465 108.881 680.254 114.975C674.043 121.068 665.723 124.965 655.293 126.664C669.062 128.949 678.496 136.039 683.594 147.934C685.645 152.738 687.432 158.041 688.955 163.842C690.537 169.584 691.943 173.656 693.174 176.059C695.869 181.449 699.854 184.145 705.127 184.145H708.643L708.818 191.439H696.426C684.941 191.439 677.207 189.887 673.223 186.781C669.18 183.617 666.104 177.377 663.994 168.061C662.061 159.564 660.479 153.764 659.248 150.658C656.67 143.979 653.33 138.734 649.229 134.926C645.127 131.117 639.824 129.213 633.32 129.213H617.236V184.145H637.803V191H579.355V184.145H593.506L593.594 63.3828H579.355V56.5273H639.033ZM637.451 123.148C648.115 123.148 655.615 119.721 659.951 112.865C663.115 107.885 664.697 100.824 664.697 91.6836C664.697 82.543 662.852 75.8047 659.16 71.4688C654.59 66.0781 646.826 63.3828 635.869 63.3828H617.236V123.148H637.451Z" fill="#FCF5F5"/>
<path d="M714.174 184.145H729.467V63.3828H714.174V56.5273H753.988L825.18 162.436V63.3828H808.129V56.5273H849.877V63.3828H833.793V191H817.445L738.08 74.3691V184.145H755.922V191H714.174V184.145Z" fill="#FCF5F5"/>
<path d="M856.463 184.145H865.955L915.525 56.5273H925.721L978.719 184.145H987.684V191H939.783V184.145H952.967L940.311 153.471H886.961L875.359 184.145H891.18V191H856.463V184.145ZM937.498 146.615L912.537 85.8828L889.598 146.615H937.498Z" fill="#FCF5F5"/>
<defs>
<radialGradient id="paint0_radial_18_1165" cx="0" cy="0" r="1" gradientUnits="userSpaceOnUse" gradientTransform="translate(1314.4 245.672) rotate(90) scale(203.089 1372.43)">
<stop stop-color="#7A7A7A" stop-opacity="0.8"/>
<stop offset="1" stop-color="#FBFBFB"/>
</radialGradient>
</defs>
</svg>
