<svg width="384" height="74" viewBox="0 0 384 74" fill="none" xmlns="http://www.w3.org/2000/svg">
<g clip-path="url(#clip0_208_349)">
<rect width="384" height="74" fill="#F3F3F3"/>
<path d="M20.4679 69.6781H30.0517L30.0998 3.69505H21.1421C15.8445 4.04696 12.1523 5.99846 10.0654 9.54955C8.46006 12.2688 7.51292 16.7797 7.22396 23.0821H3.4675V0H69.639V23.0821H65.8825C65.5935 16.8437 64.6303 12.3328 62.9929 9.54955C60.906 5.99846 57.2298 4.04696 51.9643 3.69505H43.0548V69.6781H52.6867V73.4211H20.4679V69.6781Z" fill="#DDDDDD" fill-opacity="0.8"/>
<path d="M17.0004 69.6781H26.5842L26.6323 3.69505H17.6746C12.377 4.04696 8.6848 5.99846 6.59788 9.54955C4.99256 12.2688 4.04542 16.7797 3.75646 23.0821H0V0H66.1715V23.0821H62.415C62.126 16.8437 61.1628 12.3328 59.5254 9.54955C57.4385 5.99846 53.7623 4.04696 48.4968 3.69505H39.5873V69.6781H49.2192V73.4211H17.0004V69.6781Z" fill="#0E0D0D"/>
<path d="M70.4464 70.6933H74.1035L93.2019 21.7009H97.1299L117.549 70.6933H121.003V73.3252H102.548V70.6933H107.627L102.751 58.9176H82.1966L77.7268 70.6933H83.822V73.3252H70.4464V70.6933ZM101.667 56.2858L92.0505 32.9705L83.2125 56.2858H101.667Z" fill="#DDDDDD" fill-opacity="0.8"/>
<path d="M125.199 24.3328H120.662V21.7009H142.334V24.3328H135.798L150.799 62.6292L164.886 24.3328H158.52V21.7009H173.758V24.3328H168.543L149.75 74H146.871L125.199 24.3328Z" fill="#DDDDDD" fill-opacity="0.8"/>
<path d="M175.076 70.6596H181.849L181.883 24.3328H175.076V21.7009H218.86V36.4122H216.219C216.106 34.5451 215.948 32.8918 215.745 31.4522C215.542 29.99 215.113 28.7529 214.458 27.7406C213.149 25.6712 210.485 24.5352 206.467 24.3328H190.992V45.5223H199.457C201.376 45.5223 202.843 45.2186 203.859 44.6113C204.898 43.9815 205.53 42.8905 205.756 41.3384C205.801 40.8885 205.835 40.4161 205.857 39.9212C205.902 39.4039 205.948 38.8978 205.993 38.4029H208.837V55.8134H205.993C205.948 55.2961 205.902 54.7 205.857 54.0251C205.835 53.3503 205.801 52.7879 205.756 52.3381C205.53 50.786 204.886 49.7062 203.825 49.0989C202.787 48.4691 201.331 48.1541 199.457 48.1541H190.992V70.6933H205.485C211.422 70.6933 215.023 67.9603 216.287 62.4942C216.648 60.9196 216.885 59.3 216.998 57.6354H219.639V73.3252H175.076V70.6596Z" fill="#DDDDDD" fill-opacity="0.8"/>
<path d="M249.673 21.7009C262.653 21.7009 269.144 26.0423 269.144 34.7251C269.144 38.6616 267.947 41.7995 265.554 44.1389C263.161 46.4783 259.956 47.9742 255.937 48.6265C261.242 49.5038 264.877 52.2256 266.841 56.7919C267.631 58.6364 268.32 60.6722 268.907 62.8991C269.516 65.1035 270.058 66.6669 270.532 67.5891C271.57 69.6586 273.105 70.6933 275.137 70.6933H276.492L276.559 73.4939H271.785C267.36 73.4939 264.38 72.8978 262.845 71.7056C261.288 70.4909 260.102 68.0953 259.29 64.5187C258.545 61.257 257.935 59.0301 257.461 57.8379C256.468 55.2736 255.181 53.2603 253.601 51.7982C252.021 50.3361 249.978 49.605 247.472 49.605H241.275V70.6933H249.199V73.3252H226.68V70.6933H232.132L232.166 24.3328H226.68V21.7009H249.673ZM249.063 47.2769C253.172 47.2769 256.061 45.9609 257.732 43.3291C258.951 41.4171 259.561 38.7066 259.561 35.1975C259.561 31.6884 258.849 29.1015 257.427 27.437C255.666 25.3675 252.675 24.3328 248.454 24.3328H241.275V47.2769H249.063Z" fill="#DDDDDD" fill-opacity="0.8"/>
<path d="M278.623 70.6933H284.515V24.3328H278.623V21.7009H293.962L321.391 62.3592V24.3328H314.822V21.7009H330.906V24.3328H324.709V73.3252H318.411L287.833 28.5504V70.6933H294.707V73.3252H278.623V70.6933Z" fill="#DDDDDD" fill-opacity="0.8"/>
<path d="M333.444 70.6933H337.101L356.199 21.7009H360.127L380.546 70.6933H384V73.3252H365.545V70.6933H370.624L365.748 58.9176H345.194L340.724 70.6933H346.819V73.3252H333.444V70.6933ZM364.665 56.2858L355.048 32.9705L346.21 56.2858H364.665Z" fill="#DDDDDD" fill-opacity="0.8"/>
<path d="M66.9789 70.6933H70.636L89.7343 21.7009H93.6624L114.081 70.6933H117.535V73.3252H99.0803V70.6933H104.16L99.2835 58.9176H78.7291L74.2593 70.6933H80.3545V73.3252H66.9789V70.6933ZM98.1999 56.2858L88.583 32.9705L79.745 56.2858H98.1999Z" fill="#040404"/>
<path d="M121.732 24.3328H117.194V21.7009H138.866V24.3328H132.331L147.332 62.6292L161.419 24.3328H155.052V21.7009H170.291V24.3328H165.076L146.282 74H143.404L121.732 24.3328Z" fill="#040404"/>
<path d="M171.609 70.6596H178.381L178.415 24.3328H171.609V21.7009H215.393V36.4122H212.752C212.639 34.5451 212.481 32.8918 212.278 31.4522C212.074 29.99 211.645 28.7529 210.991 27.7406C209.681 25.6712 207.018 24.5352 202.999 24.3328H187.524V45.5223H195.99C197.909 45.5223 199.376 45.2186 200.392 44.6113C201.43 43.9815 202.062 42.8905 202.288 41.3384C202.333 40.8885 202.367 40.4161 202.39 39.9212C202.435 39.4039 202.48 38.8978 202.525 38.4029H205.37V55.8134H202.525C202.48 55.2961 202.435 54.7 202.39 54.0251C202.367 53.3503 202.333 52.7879 202.288 52.3381C202.062 50.786 201.419 49.7062 200.358 49.0989C199.32 48.4691 197.863 48.1541 195.99 48.1541H187.524V70.6933H202.017C207.954 70.6933 211.555 67.9603 212.819 62.4942C213.18 60.9196 213.418 59.3 213.53 57.6354H216.172V73.3252H171.609V70.6596Z" fill="#040404"/>
<path d="M246.205 21.7009C259.186 21.7009 265.676 26.0423 265.676 34.7251C265.676 38.6616 264.48 41.7995 262.087 44.1389C259.694 46.4783 256.488 47.9742 252.47 48.6265C257.775 49.5038 261.409 52.2256 263.373 56.7919C264.164 58.6364 264.852 60.6722 265.439 62.8991C266.049 65.1035 266.59 66.6669 267.064 67.5891C268.103 69.6586 269.638 70.6933 271.67 70.6933H273.024L273.092 73.4939H268.317C263.893 73.4939 260.913 72.8978 259.378 71.7056C257.82 70.4909 256.635 68.0953 255.822 64.5187C255.077 61.257 254.468 59.0301 253.994 57.8379C253 55.2736 251.714 53.2603 250.133 51.7982C248.553 50.3361 246.51 49.605 244.004 49.605H237.807V70.6933H245.731V73.3252H223.213V70.6933H228.665L228.698 24.3328H223.213V21.7009H246.205ZM245.596 47.2769C249.704 47.2769 252.594 45.9609 254.264 43.3291C255.484 41.4171 256.093 38.7066 256.093 35.1975C256.093 31.6884 255.382 29.1015 253.96 27.437C252.199 25.3675 249.208 24.3328 244.986 24.3328H237.807V47.2769H245.596Z" fill="#040404"/>
<path d="M275.155 70.6933H281.047V24.3328H275.155V21.7009H290.495L317.923 62.3592V24.3328H311.354V21.7009H327.439V24.3328H321.242V73.3252H314.943L284.366 28.5504V70.6933H291.24V73.3252H275.155V70.6933Z" fill="#040404"/>
<path d="M329.976 70.6933H333.633L352.732 21.7009H356.66L377.079 70.6933H380.533V73.3252H362.078V70.6933H367.157L362.281 58.9176H341.726L337.257 70.6933H343.352V73.3252H329.976V70.6933ZM361.197 56.2858L351.58 32.9705L342.742 56.2858H361.197Z" fill="#040404"/>
</g>
<defs>
<clipPath id="clip0_208_349">
<rect width="384" height="74" fill="white"/>
</clipPath>
</defs>
</svg>
